<svg width="389" height="226" viewBox="0 0 389 226" fill="none" xmlns="http://www.w3.org/2000/svg">
<g filter="url(#filter0_ddd)">
<path d="M108.26 40.0314C51.3154 27.6067 37.217 56.1549 29.3958 75.3821C11.798 140.885 96.5281 133.56 108.26 129.649C119.992 125.739 185.751 106.993 230.467 147.728C315.131 224.857 353.536 155.556 353.536 123.784C353.536 103.253 332.68 41.9867 286.078 50.1338C220.694 61.5645 183.549 56.4586 108.26 40.0314Z" fill="white"/>
</g>
<path d="M82.1318 85.2453H89.8279V102.702C87.5754 104.496 84.9475 105.873 81.9441 106.832C78.9406 107.791 75.8539 108.271 72.6837 108.271C68.2203 108.271 64.195 107.312 60.6077 105.393C57.0203 103.432 54.2047 100.742 52.1607 97.3213C50.1168 93.9008 49.0948 90.0423 49.0948 85.7459C49.0948 81.4494 50.1168 77.5909 52.1607 74.1705C54.2047 70.75 57.0203 68.0803 60.6077 66.1615C64.2367 64.201 68.3038 63.2207 72.8088 63.2207C76.4796 63.2207 79.8166 63.8256 82.8201 65.0353C85.8235 66.245 88.3471 68.0178 90.3911 70.3537L85.2603 75.3593C81.9233 72.0222 77.8978 70.3537 73.1842 70.3537C70.0974 70.3537 67.3444 71.0003 64.925 72.2934C62.5473 73.5865 60.6702 75.401 59.2937 77.7369C57.9589 80.0729 57.2915 82.7425 57.2915 85.7459C57.2915 88.6658 57.9589 91.2937 59.2937 93.6297C60.6702 95.9656 62.5473 97.801 64.925 99.1358C67.3444 100.471 70.0766 101.138 73.1216 101.138C76.5421 101.138 79.5455 100.387 82.1318 98.8855V85.2453ZM112.569 73.8576C117.492 73.8576 121.246 75.0464 123.832 77.4241C126.46 79.76 127.774 83.3057 127.774 88.061V107.645H120.391V103.578C119.431 105.038 118.055 106.165 116.261 106.957C114.509 107.708 112.382 108.083 109.879 108.083C107.376 108.083 105.186 107.666 103.309 106.832C101.432 105.956 99.9721 104.767 98.9292 103.265C97.9281 101.722 97.4276 99.9909 97.4276 98.0721C97.4276 95.0688 98.533 92.6703 100.744 90.8766C102.996 89.0412 106.521 88.1235 111.318 88.1235H119.953V87.623C119.953 85.287 119.244 83.4934 117.825 82.242C116.449 80.9906 114.384 80.3649 111.631 80.3649C109.754 80.3649 107.898 80.6569 106.062 81.2409C104.269 81.8248 102.746 82.6382 101.495 83.6811L98.4287 77.9872C100.181 76.6524 102.287 75.6304 104.748 74.9213C107.209 74.2122 109.816 73.8576 112.569 73.8576ZM111.506 102.389C113.466 102.389 115.197 101.951 116.699 101.075C118.242 100.158 119.327 98.8647 119.953 97.1962V93.3168H111.881C107.376 93.3168 105.124 94.7976 105.124 97.7593C105.124 99.1775 105.687 100.304 106.813 101.138C107.939 101.972 109.504 102.389 111.506 102.389ZM137.812 61.2185H145.633V107.645H137.812V61.2185ZM155.898 61.2185H163.72V107.645H155.898V61.2185ZM205.395 91.1269C205.395 91.6692 205.353 92.4409 205.27 93.442H179.053C179.512 95.9031 180.701 97.8636 182.62 99.3235C184.58 100.742 187 101.451 189.878 101.451C193.549 101.451 196.573 100.241 198.95 97.8219L203.143 102.64C201.641 104.433 199.743 105.789 197.449 106.707C195.154 107.624 192.568 108.083 189.69 108.083C186.019 108.083 182.787 107.353 179.992 105.893C177.197 104.433 175.028 102.41 173.484 99.8241C171.983 97.1962 171.232 94.2345 171.232 90.9392C171.232 87.6855 171.962 84.7656 173.422 82.1794C174.924 79.5515 176.988 77.5075 179.616 76.0476C182.244 74.5876 185.206 73.8576 188.501 73.8576C191.755 73.8576 194.654 74.5876 197.198 76.0476C199.785 77.4658 201.787 79.4889 203.205 82.1168C204.665 84.703 205.395 87.7064 205.395 91.1269ZM188.501 80.1146C185.998 80.1146 183.871 80.8654 182.119 82.3671C180.409 83.8271 179.366 85.7876 178.991 88.2487H197.949C197.616 85.8293 196.594 83.8688 194.883 82.3671C193.173 80.8654 191.046 80.1146 188.501 80.1146ZM220.353 79.1135C222.606 75.6096 226.568 73.8576 232.241 73.8576V81.3034C231.574 81.1783 230.969 81.1157 230.427 81.1157C227.382 81.1157 225.004 82.0125 223.294 83.8062C221.584 85.5582 220.729 88.1027 220.729 91.4397V107.645H212.907V74.233H220.353V79.1135ZM271.383 74.233L255.741 110.336C254.281 113.965 252.508 116.509 250.423 117.969C248.337 119.471 245.813 120.222 242.852 120.222C241.183 120.222 239.535 119.951 237.909 119.408C236.282 118.866 234.947 118.115 233.904 117.156L237.033 111.4C237.783 112.109 238.659 112.672 239.661 113.089C240.703 113.506 241.746 113.715 242.789 113.715C244.166 113.715 245.292 113.36 246.168 112.651C247.085 111.942 247.92 110.753 248.671 109.084L249.234 107.77L234.655 74.233H242.789L253.301 98.9481L263.875 74.233H271.383Z" fill="url(#paint0_linear)"/>
<path d="M332.07 140.361L332.444 142.502C333.064 146.048 330.691 149.424 327.146 150.044L275.782 159.02C272.236 159.64 268.859 157.268 268.24 153.722L262.255 119.48C261.636 115.934 264.008 112.557 267.554 111.938L269.694 111.564L274.556 139.385C275.587 145.286 281.226 149.247 287.127 148.216L332.07 140.361ZM343.04 127.417L337.056 93.1747C336.436 89.6291 333.06 87.2567 329.514 87.8765L278.151 96.8526C274.604 97.4725 272.233 100.849 272.852 104.395L278.836 138.638C279.456 142.183 282.833 144.555 286.379 143.936L337.742 134.96C341.288 134.34 343.66 130.963 343.04 127.417ZM295.376 107.076C295.996 110.621 293.623 113.998 290.077 114.618C286.531 115.238 283.154 112.865 282.535 109.32C281.915 105.773 284.287 102.397 287.833 101.777C291.379 101.158 294.756 103.529 295.376 107.076ZM285.901 128.581L292.029 119.857C292.546 119.121 293.562 118.944 294.299 119.461L300.508 123.822L315.466 102.528C315.983 101.792 317 101.614 317.737 102.132L331.488 111.792L334.106 126.773L287.023 135.001L285.901 128.581Z" fill="url(#paint1_linear)"/>
<defs>
<filter id="filter0_ddd" x="9" y="20" width="362.536" height="181.86" filterUnits="userSpaceOnUse" color-interpolation-filters="sRGB">
<feFlood flood-opacity="0" result="BackgroundImageFix"/>
<feColorMatrix in="SourceAlpha" type="matrix" values="0 0 0 0 0 0 0 0 0 0 0 0 0 0 0 0 0 0 127 0"/>
<feOffset dy="3"/>
<feGaussianBlur stdDeviation="2.5"/>
<feColorMatrix type="matrix" values="0 0 0 0 0 0 0 0 0 0 0 0 0 0 0 0 0 0 0.2 0"/>
<feBlend mode="normal" in2="BackgroundImageFix" result="effect1_dropShadow"/>
<feColorMatrix in="SourceAlpha" type="matrix" values="0 0 0 0 0 0 0 0 0 0 0 0 0 0 0 0 0 0 127 0"/>
<feOffset dy="1"/>
<feGaussianBlur stdDeviation="9"/>
<feColorMatrix type="matrix" values="0 0 0 0 0 0 0 0 0 0 0 0 0 0 0 0 0 0 0.12 0"/>
<feBlend mode="normal" in2="effect1_dropShadow" result="effect2_dropShadow"/>
<feColorMatrix in="SourceAlpha" type="matrix" values="0 0 0 0 0 0 0 0 0 0 0 0 0 0 0 0 0 0 127 0"/>
<feOffset dy="6"/>
<feGaussianBlur stdDeviation="5"/>
<feColorMatrix type="matrix" values="0 0 0 0 0 0 0 0 0 0 0 0 0 0 0 0 0 0 0.14 0"/>
<feBlend mode="normal" in2="effect2_dropShadow" result="effect3_dropShadow"/>
<feBlend mode="normal" in="SourceGraphic" in2="effect3_dropShadow" result="shape"/>
</filter>
<linearGradient id="paint0_linear" x1="49.0948" y1="61.2185" x2="215.431" y2="191.603" gradientUnits="userSpaceOnUse">
<stop stop-color="#08C869"/>
<stop offset="1" stop-color="#9238D9"/>
</linearGradient>
<linearGradient id="paint1_linear" x1="262.157" y1="87.7781" x2="354.819" y2="109.663" gradientUnits="userSpaceOnUse">
<stop stop-color="#08C869"/>
<stop offset="1" stop-color="#9238D9"/>
</linearGradient>
</defs>
</svg>
