<svg width="350" height="311" viewBox="0 0 350 311" fill="none" xmlns="http://www.w3.org/2000/svg">
<g clip-path="url(#clip0)">
<g filter="url(#filter0_ddd)">
<path d="M231.936 11.1421L40.4097 50.5095L89.094 287.364L280.621 247.997L231.936 11.1421Z" fill="white"/>
</g>
<path d="M221.53 25.2581L55.5402 59.3765L91.2333 233.027L257.223 198.909L221.53 25.2581Z" fill="url(#paint0_linear)"/>
<g filter="url(#filter1_ddd)">
<path d="M332.21 52.412L138.933 22.812L102.328 261.832L295.605 291.432L332.21 52.412Z" fill="white"/>
</g>
<path d="M317.549 62.0351L150.042 36.3818L123.205 211.62L290.712 237.273L317.549 62.0351Z" fill="url(#paint1_linear)"/>
<g filter="url(#filter2_ddd)">
<path d="M92.9918 83.1989C36.0473 70.7742 21.9489 99.3223 14.1276 118.55C-3.47015 184.052 81.26 176.727 92.9918 172.816C104.724 168.907 170.483 150.16 215.199 190.896C299.863 268.024 338.268 198.723 338.268 166.951C338.268 146.42 317.412 85.1542 270.81 93.3013C205.426 104.732 168.281 99.6261 92.9918 83.1989Z" fill="white"/>
</g>
<path d="M66.8637 128.413H74.5598V145.87C72.3073 147.663 69.6793 149.04 66.676 149.999C63.6725 150.959 60.5857 151.439 57.4155 151.439C52.9522 151.439 48.9269 150.479 45.3395 148.56C41.7522 146.6 38.9366 143.909 36.8926 140.489C34.8487 137.068 33.8267 133.21 33.8267 128.913C33.8267 124.617 34.8487 120.758 36.8926 117.338C38.9366 113.917 41.7522 111.248 45.3395 109.329C48.9686 107.368 53.0356 106.388 57.5407 106.388C61.2114 106.388 64.5485 106.993 67.552 108.203C70.5553 109.412 73.079 111.185 75.1229 113.521L69.9922 118.527C66.6551 115.19 62.6297 113.521 57.9161 113.521C54.8293 113.521 52.0762 114.168 49.6569 115.461C47.2792 116.754 45.4021 118.568 44.0256 120.904C42.6908 123.24 42.0233 125.91 42.0233 128.913C42.0233 131.833 42.6908 134.461 44.0256 136.797C45.4021 139.133 47.2792 140.968 49.6569 142.303C52.0762 143.638 54.8084 144.306 57.8535 144.306C61.274 144.306 64.2773 143.555 66.8637 142.053V128.413ZM97.3013 117.025C102.223 117.025 105.978 118.214 108.564 120.592C111.192 122.928 112.506 126.473 112.506 131.228V150.813H105.123V146.746C104.163 148.206 102.787 149.332 100.993 150.125C99.241 150.875 97.1136 151.251 94.6108 151.251C92.108 151.251 89.9181 150.834 88.041 149.999C86.1639 149.123 84.7039 147.935 83.6611 146.433C82.66 144.89 82.1594 143.158 82.1594 141.24C82.1594 138.236 83.2648 135.838 85.4756 134.044C87.7281 132.209 91.2529 131.291 96.0499 131.291H104.685V130.79C104.685 128.455 103.975 126.661 102.557 125.409C101.181 124.158 99.1159 123.532 96.3628 123.532C94.4857 123.532 92.6294 123.824 90.7941 124.408C89.0004 124.992 87.4779 125.806 86.2265 126.849L83.1605 121.155C84.9125 119.82 87.019 118.798 89.4801 118.089C91.9412 117.38 94.5482 117.025 97.3013 117.025ZM96.2376 145.557C98.1982 145.557 99.9292 145.119 101.431 144.243C102.974 143.325 104.059 142.032 104.685 140.364V136.484H96.613C92.108 136.484 89.8555 137.965 89.8555 140.927C89.8555 142.345 90.4186 143.471 91.5449 144.306C92.6712 145.14 94.2354 145.557 96.2376 145.557ZM122.544 104.386H130.365V150.813H122.544V104.386ZM140.63 104.386H148.452V150.813H140.63V104.386ZM190.127 134.294C190.127 134.837 190.085 135.608 190.002 136.609H163.785C164.244 139.071 165.433 141.031 167.352 142.491C169.312 143.909 171.731 144.618 174.61 144.618C178.28 144.618 181.305 143.409 183.682 140.989L187.874 145.807C186.373 147.601 184.475 148.957 182.181 149.874C179.886 150.792 177.3 151.251 174.422 151.251C170.751 151.251 167.518 150.521 164.724 149.061C161.929 147.601 159.76 145.578 158.216 142.992C156.715 140.364 155.964 137.402 155.964 134.107C155.964 130.853 156.694 127.933 158.154 125.347C159.655 122.719 161.72 120.675 164.348 119.215C166.976 117.755 169.938 117.025 173.233 117.025C176.487 117.025 179.386 117.755 181.93 119.215C184.517 120.633 186.519 122.656 187.937 125.284C189.397 127.871 190.127 130.874 190.127 134.294ZM173.233 123.282C170.73 123.282 168.603 124.033 166.851 125.535C165.141 126.995 164.098 128.955 163.722 131.416H182.681C182.347 128.997 181.325 127.036 179.615 125.535C177.905 124.033 175.778 123.282 173.233 123.282ZM205.085 122.281C207.338 118.777 211.3 117.025 216.973 117.025V124.471C216.306 124.346 215.701 124.283 215.159 124.283C212.114 124.283 209.736 125.18 208.026 126.974C206.316 128.726 205.46 131.27 205.46 134.607V150.813H197.639V117.401H205.085V122.281ZM256.115 117.401L240.473 153.503C239.013 157.132 237.24 159.677 235.154 161.137C233.069 162.639 230.545 163.389 227.583 163.389C225.915 163.389 224.267 163.118 222.64 162.576C221.014 162.034 219.679 161.283 218.636 160.323L221.764 154.567C222.515 155.276 223.391 155.839 224.392 156.256C225.435 156.674 226.478 156.882 227.521 156.882C228.897 156.882 230.024 156.528 230.9 155.818C231.817 155.109 232.652 153.92 233.402 152.252L233.966 150.938L219.387 117.401H227.521L238.033 142.116L248.607 117.401H256.115Z" fill="url(#paint2_linear)"/>
<path d="M316.801 183.529L317.176 185.669C317.795 189.215 315.423 192.592 311.877 193.212L260.514 202.188C256.968 202.808 253.591 200.435 252.972 196.89L246.987 162.648C246.368 159.101 248.74 155.725 252.286 155.105L254.426 154.731L259.288 182.553C260.319 188.453 265.958 192.415 271.859 191.383L316.801 183.529ZM327.772 170.584L321.788 136.342C321.168 132.797 317.792 130.424 314.246 131.044L262.883 140.02C259.336 140.64 256.965 144.017 257.584 147.562L263.568 181.805C264.188 185.351 267.565 187.722 271.111 187.103L322.474 178.127C326.019 177.507 328.392 174.13 327.772 170.584ZM280.108 150.243C280.727 153.789 278.355 157.166 274.809 157.785C271.263 158.405 267.886 156.033 267.266 152.487C266.647 148.941 269.019 145.564 272.565 144.945C276.111 144.325 279.488 146.697 280.108 150.243ZM270.633 171.748L276.761 163.025C277.278 162.288 278.294 162.111 279.031 162.628L285.24 166.99L300.198 145.696C300.715 144.96 301.732 144.782 302.468 145.299L316.219 154.959L318.838 169.94L271.755 178.169L270.633 171.748Z" fill="url(#paint3_linear)"/>
</g>
<defs>
<filter id="filter0_ddd" x="18.4097" y="-5.85791" width="284.211" height="322.222" filterUnits="userSpaceOnUse" color-interpolation-filters="sRGB">
<feFlood flood-opacity="0" result="BackgroundImageFix"/>
<feColorMatrix in="SourceAlpha" type="matrix" values="0 0 0 0 0 0 0 0 0 0 0 0 0 0 0 0 0 0 127 0"/>
<feOffset dy="7"/>
<feGaussianBlur stdDeviation="4"/>
<feColorMatrix type="matrix" values="0 0 0 0 0 0 0 0 0 0 0 0 0 0 0 0 0 0 0.2 0"/>
<feBlend mode="normal" in2="BackgroundImageFix" result="effect1_dropShadow"/>
<feColorMatrix in="SourceAlpha" type="matrix" values="0 0 0 0 0 0 0 0 0 0 0 0 0 0 0 0 0 0 127 0"/>
<feOffset dy="5"/>
<feGaussianBlur stdDeviation="11"/>
<feColorMatrix type="matrix" values="0 0 0 0 0 0 0 0 0 0 0 0 0 0 0 0 0 0 0.12 0"/>
<feBlend mode="normal" in2="effect1_dropShadow" result="effect2_dropShadow"/>
<feColorMatrix in="SourceAlpha" type="matrix" values="0 0 0 0 0 0 0 0 0 0 0 0 0 0 0 0 0 0 127 0"/>
<feOffset dy="12"/>
<feGaussianBlur stdDeviation="8.5"/>
<feColorMatrix type="matrix" values="0 0 0 0 0 0 0 0 0 0 0 0 0 0 0 0 0 0 0.14 0"/>
<feBlend mode="normal" in2="effect2_dropShadow" result="effect3_dropShadow"/>
<feBlend mode="normal" in="SourceGraphic" in2="effect3_dropShadow" result="shape"/>
</filter>
<filter id="filter1_ddd" x="80.3278" y="5.81201" width="273.883" height="314.62" filterUnits="userSpaceOnUse" color-interpolation-filters="sRGB">
<feFlood flood-opacity="0" result="BackgroundImageFix"/>
<feColorMatrix in="SourceAlpha" type="matrix" values="0 0 0 0 0 0 0 0 0 0 0 0 0 0 0 0 0 0 127 0"/>
<feOffset dy="7"/>
<feGaussianBlur stdDeviation="4"/>
<feColorMatrix type="matrix" values="0 0 0 0 0 0 0 0 0 0 0 0 0 0 0 0 0 0 0.2 0"/>
<feBlend mode="normal" in2="BackgroundImageFix" result="effect1_dropShadow"/>
<feColorMatrix in="SourceAlpha" type="matrix" values="0 0 0 0 0 0 0 0 0 0 0 0 0 0 0 0 0 0 127 0"/>
<feOffset dy="5"/>
<feGaussianBlur stdDeviation="11"/>
<feColorMatrix type="matrix" values="0 0 0 0 0 0 0 0 0 0 0 0 0 0 0 0 0 0 0.12 0"/>
<feBlend mode="normal" in2="effect1_dropShadow" result="effect2_dropShadow"/>
<feColorMatrix in="SourceAlpha" type="matrix" values="0 0 0 0 0 0 0 0 0 0 0 0 0 0 0 0 0 0 127 0"/>
<feOffset dy="12"/>
<feGaussianBlur stdDeviation="8.5"/>
<feColorMatrix type="matrix" values="0 0 0 0 0 0 0 0 0 0 0 0 0 0 0 0 0 0 0.14 0"/>
<feBlend mode="normal" in2="effect2_dropShadow" result="effect3_dropShadow"/>
<feBlend mode="normal" in="SourceGraphic" in2="effect3_dropShadow" result="shape"/>
</filter>
<filter id="filter2_ddd" x="-6.26814" y="63.1675" width="362.536" height="181.86" filterUnits="userSpaceOnUse" color-interpolation-filters="sRGB">
<feFlood flood-opacity="0" result="BackgroundImageFix"/>
<feColorMatrix in="SourceAlpha" type="matrix" values="0 0 0 0 0 0 0 0 0 0 0 0 0 0 0 0 0 0 127 0"/>
<feOffset dy="3"/>
<feGaussianBlur stdDeviation="2.5"/>
<feColorMatrix type="matrix" values="0 0 0 0 0 0 0 0 0 0 0 0 0 0 0 0 0 0 0.2 0"/>
<feBlend mode="normal" in2="BackgroundImageFix" result="effect1_dropShadow"/>
<feColorMatrix in="SourceAlpha" type="matrix" values="0 0 0 0 0 0 0 0 0 0 0 0 0 0 0 0 0 0 127 0"/>
<feOffset dy="1"/>
<feGaussianBlur stdDeviation="9"/>
<feColorMatrix type="matrix" values="0 0 0 0 0 0 0 0 0 0 0 0 0 0 0 0 0 0 0.12 0"/>
<feBlend mode="normal" in2="effect1_dropShadow" result="effect2_dropShadow"/>
<feColorMatrix in="SourceAlpha" type="matrix" values="0 0 0 0 0 0 0 0 0 0 0 0 0 0 0 0 0 0 127 0"/>
<feOffset dy="6"/>
<feGaussianBlur stdDeviation="5"/>
<feColorMatrix type="matrix" values="0 0 0 0 0 0 0 0 0 0 0 0 0 0 0 0 0 0 0.14 0"/>
<feBlend mode="normal" in2="effect2_dropShadow" result="effect3_dropShadow"/>
<feBlend mode="normal" in="SourceGraphic" in2="effect3_dropShadow" result="shape"/>
</filter>
<linearGradient id="paint0_linear" x1="73.3867" y1="146.202" x2="239.377" y2="112.083" gradientUnits="userSpaceOnUse">
<stop stop-color="#343434"/>
<stop offset="1" stop-color="#524F4F"/>
</linearGradient>
<linearGradient id="paint1_linear" x1="136.624" y1="124.001" x2="304.131" y2="149.654" gradientUnits="userSpaceOnUse">
<stop stop-color="#343434"/>
<stop offset="1" stop-color="#524F4F"/>
</linearGradient>
<linearGradient id="paint2_linear" x1="33.8267" y1="104.386" x2="200.163" y2="234.77" gradientUnits="userSpaceOnUse">
<stop stop-color="#08C869"/>
<stop offset="1" stop-color="#9238D9"/>
</linearGradient>
<linearGradient id="paint3_linear" x1="246.889" y1="130.946" x2="339.551" y2="152.831" gradientUnits="userSpaceOnUse">
<stop stop-color="#08C869"/>
<stop offset="1" stop-color="#9238D9"/>
</linearGradient>
<clipPath id="clip0">
<rect width="350" height="310.894" fill="white"/>
</clipPath>
</defs>
</svg>
